<?xml version="1.0" encoding="utf-8"?>
<!-- Generator: Adobe Illustrator 16.0.0, SVG Export Plug-In . SVG Version: 6.00 Build 0)  -->
<!DOCTYPE svg PUBLIC "-//W3C//DTD SVG 1.1//EN" "http://www.w3.org/Graphics/SVG/1.1/DTD/svg11.dtd">
<svg version="1.1" id="Layer_1" xmlns="http://www.w3.org/2000/svg" xmlns:xlink="http://www.w3.org/1999/xlink" x="0px" y="0px"
	 width="212.066px" height="45px" viewBox="0 0 212.066 45" enable-background="new 0 0 212.066 45" xml:space="preserve">
<g>
	<g>
		<defs>
			<polygon id="SVGID_1_" points="185.499,0 183.297,6.428 173.541,6.428 172.922,6.428 162.213,36.977 153.604,36.977 
				164.533,6.428 163.445,6.428 158.107,6.428 160.308,0 			"/>
		</defs>
		<use xlink:href="#SVGID_1_"  overflow="visible" fill="#FFFFFF"/>
		<clipPath id="SVGID_2_">
			<use xlink:href="#SVGID_1_"  overflow="visible"/>
		</clipPath>
		<defs>
			<filter id="Adobe_OpacityMaskFilter" filterUnits="userSpaceOnUse" x="153.604" y="0" width="31.895" height="36.977">
				<feColorMatrix  type="matrix" values="1 0 0 0 0  0 1 0 0 0  0 0 1 0 0  0 0 0 1 0"/>
			</filter>
		</defs>
		<mask maskUnits="userSpaceOnUse" x="153.604" y="0" width="31.895" height="36.977" id="SVGID_3_">
			<g filter="url(#Adobe_OpacityMaskFilter)">
				
					<linearGradient id="SVGID_4_" gradientUnits="userSpaceOnUse" x1="-533.8853" y1="409.2495" x2="-533.7056" y2="409.2495" gradientTransform="matrix(0 -205.4927 -205.4927 0 84267.2109 -109672.5781)">
					<stop  offset="0" style="stop-color:#B3B3B3"/>
					<stop  offset="0.1036" style="stop-color:#B9B9B9"/>
					<stop  offset="0.2446" style="stop-color:#CACACA"/>
					<stop  offset="0.4064" style="stop-color:#E7E7E7"/>
					<stop  offset="0.5204" style="stop-color:#FFFFFF"/>
					<stop  offset="0.8208" style="stop-color:#F9F9F9"/>
					<stop  offset="1" style="stop-color:#F2F2F2"/>
				</linearGradient>
				<rect x="153.604" clip-path="url(#SVGID_2_)" fill="url(#SVGID_4_)" width="31.895" height="36.977"/>
			</g>
		</mask>
		<rect x="153.604" clip-path="url(#SVGID_2_)" mask="url(#SVGID_3_)" fill="#FFFFFF" width="31.895" height="36.977"/>
	</g>
	<g>
		<defs>
			<polygon id="SVGID_5_" points="125.234,0 115.213,28.864 114.644,30.485 116.33,30.485 131.347,30.485 129.035,36.977 
				103.722,36.977 116.668,0 			"/>
		</defs>
		<use xlink:href="#SVGID_5_"  overflow="visible" fill="#FFFFFF"/>
		<clipPath id="SVGID_6_">
			<use xlink:href="#SVGID_5_"  overflow="visible"/>
		</clipPath>
		<defs>
			<filter id="Adobe_OpacityMaskFilter_1_" filterUnits="userSpaceOnUse" x="103.722" y="0" width="27.625" height="36.977">
				<feColorMatrix  type="matrix" values="1 0 0 0 0  0 1 0 0 0  0 0 1 0 0  0 0 0 1 0"/>
			</filter>
		</defs>
		<mask maskUnits="userSpaceOnUse" x="103.722" y="0" width="27.625" height="36.977" id="SVGID_7_">
			<g filter="url(#Adobe_OpacityMaskFilter_1_)">
				
					<linearGradient id="SVGID_8_" gradientUnits="userSpaceOnUse" x1="-533.8867" y1="408.0493" x2="-533.7065" y2="408.0493" gradientTransform="matrix(0 -205.4888 -205.4888 0 83967.2109 -109670.6562)">
					<stop  offset="0" style="stop-color:#B3B3B3"/>
					<stop  offset="0.1036" style="stop-color:#B9B9B9"/>
					<stop  offset="0.2446" style="stop-color:#CACACA"/>
					<stop  offset="0.4064" style="stop-color:#E7E7E7"/>
					<stop  offset="0.5204" style="stop-color:#FFFFFF"/>
					<stop  offset="0.8208" style="stop-color:#F9F9F9"/>
					<stop  offset="1" style="stop-color:#F2F2F2"/>
				</linearGradient>
				<rect x="103.722" clip-path="url(#SVGID_6_)" fill="url(#SVGID_8_)" width="27.625" height="36.977"/>
			</g>
		</mask>
		<rect x="103.722" clip-path="url(#SVGID_6_)" mask="url(#SVGID_7_)" fill="#FFFFFF" width="27.625" height="36.977"/>
	</g>
	<g>
		<defs>
			<path id="SVGID_9_" d="M33.729,30.58H20.802L6.059,45L0,39.085L39.991,0.068h13.035L40.161,36.977L33.729,30.58z M35.957,24.431
				l4.698-13.074l-1.062,1.162L27.207,24.431h8.299H35.957z"/>
		</defs>
		<use xlink:href="#SVGID_9_"  overflow="visible" fill="#FFFFFF"/>
		<clipPath id="SVGID_10_">
			<use xlink:href="#SVGID_9_"  overflow="visible"/>
		</clipPath>
		<defs>
			<filter id="Adobe_OpacityMaskFilter_2_" filterUnits="userSpaceOnUse" x="0" y="0.068" width="53.026" height="44.931">
				<feColorMatrix  type="matrix" values="1 0 0 0 0  0 1 0 0 0  0 0 1 0 0  0 0 0 1 0"/>
			</filter>
		</defs>
		<mask maskUnits="userSpaceOnUse" x="0" y="0.068" width="53.026" height="44.931" id="SVGID_11_">
			<g filter="url(#Adobe_OpacityMaskFilter_2_)">
				
					<linearGradient id="SVGID_12_" gradientUnits="userSpaceOnUse" x1="-533.6123" y1="406.3394" x2="-533.4326" y2="406.3394" gradientTransform="matrix(0 -249.6895 -249.6895 0 101485.1016 -133192.2188)">
					<stop  offset="0" style="stop-color:#B3B3B3"/>
					<stop  offset="0.1618" style="stop-color:#B6B6B6"/>
					<stop  offset="0.2939" style="stop-color:#C0C0C0"/>
					<stop  offset="0.4155" style="stop-color:#D1D1D1"/>
					<stop  offset="0.5301" style="stop-color:#E9E9E9"/>
					<stop  offset="0.6122" style="stop-color:#FFFFFF"/>
					<stop  offset="1" style="stop-color:#F2F2F2"/>
				</linearGradient>
				<rect y="0.068" clip-path="url(#SVGID_10_)" fill="url(#SVGID_12_)" width="53.026" height="44.931"/>
			</g>
		</mask>
		<rect y="0.068" clip-path="url(#SVGID_10_)" mask="url(#SVGID_11_)" fill="#FFFFFF" width="53.026" height="44.931"/>
	</g>
	<g>
		<defs>
			<polygon id="SVGID_13_" points="155.679,0.002 142.558,36.976 133.954,36.976 136.081,30.473 126.088,0 134.446,0 
				140.554,18.459 147.043,0 			"/>
		</defs>
		<use xlink:href="#SVGID_13_"  overflow="visible" fill="#FFFFFF"/>
		<clipPath id="SVGID_14_">
			<use xlink:href="#SVGID_13_"  overflow="visible"/>
		</clipPath>
		<defs>
			<filter id="Adobe_OpacityMaskFilter_3_" filterUnits="userSpaceOnUse" x="125.36" y="-0.052" width="29.181" height="38.052">
				<feColorMatrix  type="matrix" values="1 0 0 0 0  0 1 0 0 0  0 0 1 0 0  0 0 0 1 0"/>
			</filter>
		</defs>
		<mask maskUnits="userSpaceOnUse" x="125.36" y="-0.052" width="29.181" height="38.052" id="SVGID_15_">
			<g filter="url(#Adobe_OpacityMaskFilter_3_)">
				
					<linearGradient id="SVGID_16_" gradientUnits="userSpaceOnUse" x1="-533.8394" y1="408.6021" x2="-533.6592" y2="408.6021" gradientTransform="matrix(0 -211.4614 -211.4614 0 86543.4375 -112848.4688)">
					<stop  offset="0" style="stop-color:#B3B3B3"/>
					<stop  offset="0.1036" style="stop-color:#B9B9B9"/>
					<stop  offset="0.2446" style="stop-color:#CACACA"/>
					<stop  offset="0.4064" style="stop-color:#E7E7E7"/>
					<stop  offset="0.5204" style="stop-color:#FFFFFF"/>
					<stop  offset="0.8208" style="stop-color:#F9F9F9"/>
					<stop  offset="1" style="stop-color:#F2F2F2"/>
				</linearGradient>
				<rect x="125.36" y="-0.052" clip-path="url(#SVGID_14_)" fill="url(#SVGID_16_)" width="29.181" height="38.052"/>
			</g>
		</mask>
		<rect x="125.36" y="-0.052" clip-path="url(#SVGID_14_)" mask="url(#SVGID_15_)" fill="#FFFFFF" width="29.181" height="38.052"/>
	</g>
	<g>
		<defs>
			<polygon id="SVGID_17_" points="209.882,6.426 197.605,6.428 196.789,6.428 194.277,13.516 195.853,13.512 207.333,13.497 
				205.313,19.472 192.139,19.455 188.196,30.494 189.724,30.494 201.47,30.502 199.211,36.979 177.439,36.977 190.391,0 212.066,0 
							"/>
		</defs>
		<use xlink:href="#SVGID_17_"  overflow="visible" fill="#FFFFFF"/>
		<clipPath id="SVGID_18_">
			<use xlink:href="#SVGID_17_"  overflow="visible"/>
		</clipPath>
		<defs>
			<filter id="Adobe_OpacityMaskFilter_4_" filterUnits="userSpaceOnUse" x="177.439" y="0" width="34.738" height="36.977">
				<feColorMatrix  type="matrix" values="1 0 0 0 0  0 1 0 0 0  0 0 1 0 0  0 0 0 1 0"/>
			</filter>
		</defs>
		<mask maskUnits="userSpaceOnUse" x="177.439" y="0" width="34.738" height="36.977" id="SVGID_19_">
			<g filter="url(#Adobe_OpacityMaskFilter_4_)">
				
					<linearGradient id="SVGID_20_" gradientUnits="userSpaceOnUse" x1="-533.8853" y1="409.8003" x2="-533.7056" y2="409.8003" gradientTransform="matrix(0 -205.4927 -205.4927 0 84405.9609 -109672.5781)">
					<stop  offset="0" style="stop-color:#B3B3B3"/>
					<stop  offset="0.1036" style="stop-color:#B9B9B9"/>
					<stop  offset="0.2446" style="stop-color:#CACACA"/>
					<stop  offset="0.4064" style="stop-color:#E7E7E7"/>
					<stop  offset="0.5204" style="stop-color:#FFFFFF"/>
					<stop  offset="0.8208" style="stop-color:#F9F9F9"/>
					<stop  offset="1" style="stop-color:#F2F2F2"/>
				</linearGradient>
				<rect x="177.439" clip-path="url(#SVGID_18_)" fill="url(#SVGID_20_)" width="34.738" height="36.977"/>
			</g>
		</mask>
		<polygon clip-path="url(#SVGID_18_)" mask="url(#SVGID_19_)" fill="#FFFFFF" points="177.439,36.977 177.439,0 212.066,0 
			212.177,36.977 		"/>
	</g>
	<g>
		<defs>
			<polygon id="SVGID_21_" points="109.507,6.426 97.233,6.428 96.417,6.428 93.905,13.516 95.48,13.512 106.963,13.497 
				104.834,19.455 91.77,19.455 87.823,30.494 89.349,30.494 100.992,30.494 98.737,36.977 77.067,36.977 90.017,0 111.652,0 			"/>
		</defs>
		<use xlink:href="#SVGID_21_"  overflow="visible" fill="#FFFFFF"/>
		<clipPath id="SVGID_22_">
			<use xlink:href="#SVGID_21_"  overflow="visible"/>
		</clipPath>
		<defs>
			<filter id="Adobe_OpacityMaskFilter_5_" filterUnits="userSpaceOnUse" x="77.067" y="0" width="34.735" height="36.977">
				<feColorMatrix  type="matrix" values="1 0 0 0 0  0 1 0 0 0  0 0 1 0 0  0 0 0 1 0"/>
			</filter>
		</defs>
		<mask maskUnits="userSpaceOnUse" x="77.067" y="0" width="34.735" height="36.977" id="SVGID_23_">
			<g filter="url(#Adobe_OpacityMaskFilter_5_)">
				
					<linearGradient id="SVGID_24_" gradientUnits="userSpaceOnUse" x1="-533.8853" y1="410.2886" x2="-533.7056" y2="410.2886" gradientTransform="matrix(0 -205.4927 -205.4927 0 84405.9609 -109672.5781)">
					<stop  offset="0" style="stop-color:#B3B3B3"/>
					<stop  offset="0.1036" style="stop-color:#B9B9B9"/>
					<stop  offset="0.2446" style="stop-color:#CACACA"/>
					<stop  offset="0.4064" style="stop-color:#E7E7E7"/>
					<stop  offset="0.5204" style="stop-color:#FFFFFF"/>
					<stop  offset="0.8208" style="stop-color:#F9F9F9"/>
					<stop  offset="1" style="stop-color:#F2F2F2"/>
				</linearGradient>
				<rect x="77.067" clip-path="url(#SVGID_22_)" fill="url(#SVGID_24_)" width="34.735" height="36.977"/>
			</g>
		</mask>
		<rect x="77.067" clip-path="url(#SVGID_22_)" mask="url(#SVGID_23_)" fill="#FFFFFF" width="34.735" height="36.977"/>
	</g>
	<g>
		<defs>
			<path id="SVGID_25_" d="M63.906,7.423c0,0,2.423,0.178,3.734,0.508c1.914,0.48,3.12,1.715,3.694,3.334
				c1.083,2.826,0.663,8.096-3.637,14.39c-2.814,3.965-7.05,4.235-8.311,4.289c-0.992,0.06-3.158,0.086-3.158,0.086L63.906,7.423z
				 M45.043,36.97l8.544,0.007h0.084c3.029,0,9.273-0.215,11.224-1.025l0.111-0.05c1.897-0.834,5.888-2.091,10.016-8.816
				c6.365-10.839,5.937-18.5,1.009-23.395l0,0C72.188,0.283,64.982,0,58.058,0L45.043,36.97z"/>
		</defs>
		<use xlink:href="#SVGID_25_"  overflow="visible" fill="#FFFFFF"/>
		<clipPath id="SVGID_26_">
			<use xlink:href="#SVGID_25_"  overflow="visible"/>
		</clipPath>
		<defs>
			<filter id="Adobe_OpacityMaskFilter_6_" filterUnits="userSpaceOnUse" x="45.043" y="0" width="36.343" height="36.977">
				<feColorMatrix  type="matrix" values="1 0 0 0 0  0 1 0 0 0  0 0 1 0 0  0 0 0 1 0"/>
			</filter>
		</defs>
		<mask maskUnits="userSpaceOnUse" x="45.043" y="0" width="36.343" height="36.977" id="SVGID_27_">
			<g filter="url(#Adobe_OpacityMaskFilter_6_)">
				
					<linearGradient id="SVGID_28_" gradientUnits="userSpaceOnUse" x1="-533.8867" y1="406.8315" x2="-533.707" y2="406.8315" gradientTransform="matrix(0 -205.4922 -205.4922 0 83663.8359 -109672.5)">
					<stop  offset="0" style="stop-color:#B3B3B3"/>
					<stop  offset="0.1036" style="stop-color:#B9B9B9"/>
					<stop  offset="0.2446" style="stop-color:#CACACA"/>
					<stop  offset="0.4064" style="stop-color:#E7E7E7"/>
					<stop  offset="0.5204" style="stop-color:#FFFFFF"/>
					<stop  offset="0.8208" style="stop-color:#F9F9F9"/>
					<stop  offset="1" style="stop-color:#F2F2F2"/>
				</linearGradient>
				<rect x="45.043" clip-path="url(#SVGID_26_)" fill="url(#SVGID_28_)" width="36.343" height="36.977"/>
			</g>
		</mask>
		<rect x="45.043" clip-path="url(#SVGID_26_)" mask="url(#SVGID_27_)" fill="#FFFFFF" width="36.343" height="36.977"/>
	</g>
</g>
</svg>
